<mxfile host="app.diagrams.net" agent="Mozilla/5.0 (Windows NT 10.0; Win64; x64) AppleWebKit/537.36 (KHTML, like Gecko) Chrome/133.0.0.0 Safari/537.36" version="26.0.14">
  <diagram name="Page-1" id="LuLJbXCC-MuU4jHSFNh8">
    <mxGraphModel dx="1035" dy="511" grid="1" gridSize="10" guides="1" tooltips="1" connect="1" arrows="1" fold="1" page="1" pageScale="1" pageWidth="850" pageHeight="1100" math="0" shadow="0">
      <root>
        <mxCell id="0" />
        <mxCell id="1" parent="0" />
        <mxCell id="knz-vopeXLWIy0nvYE_B-160" style="edgeStyle=orthogonalEdgeStyle;rounded=0;orthogonalLoop=1;jettySize=auto;html=1;exitX=1;exitY=0.5;exitDx=0;exitDy=0;entryX=0;entryY=0.25;entryDx=0;entryDy=0;entryPerimeter=0;" edge="1" parent="1" source="5NJ1pugXPzePn0BYfRPo-78" target="5NJ1pugXPzePn0BYfRPo-1">
          <mxGeometry relative="1" as="geometry">
            <Array as="points">
              <mxPoint x="157" y="140" />
              <mxPoint x="218" y="140" />
              <mxPoint x="218" y="131" />
            </Array>
          </mxGeometry>
        </mxCell>
        <mxCell id="5NJ1pugXPzePn0BYfRPo-1" value="" style="shape=or;whiteSpace=wrap;html=1;" parent="1" vertex="1">
          <mxGeometry x="280" y="118" width="50" height="50" as="geometry" />
        </mxCell>
        <mxCell id="5NJ1pugXPzePn0BYfRPo-7" value="" style="shape=xor;whiteSpace=wrap;html=1;" parent="1" vertex="1">
          <mxGeometry x="620" y="180" width="50" height="50" as="geometry" />
        </mxCell>
        <mxCell id="5NJ1pugXPzePn0BYfRPo-8" value="" style="shape=xor;whiteSpace=wrap;html=1;" parent="1" vertex="1">
          <mxGeometry x="700" y="240" width="40" height="50" as="geometry" />
        </mxCell>
        <mxCell id="5NJ1pugXPzePn0BYfRPo-31" value="n1" style="text;html=1;align=center;verticalAlign=middle;resizable=0;points=[];autosize=1;strokeColor=none;fillColor=none;" parent="1" vertex="1">
          <mxGeometry x="30" y="80" width="40" height="30" as="geometry" />
        </mxCell>
        <mxCell id="5NJ1pugXPzePn0BYfRPo-32" value="n2" style="text;html=1;align=center;verticalAlign=middle;resizable=0;points=[];autosize=1;strokeColor=none;fillColor=none;" parent="1" vertex="1">
          <mxGeometry x="40" y="168" width="40" height="30" as="geometry" />
        </mxCell>
        <mxCell id="5NJ1pugXPzePn0BYfRPo-33" value="n3" style="text;html=1;align=center;verticalAlign=middle;resizable=0;points=[];autosize=1;strokeColor=none;fillColor=none;" parent="1" vertex="1">
          <mxGeometry x="40" y="270" width="40" height="30" as="geometry" />
        </mxCell>
        <mxCell id="5NJ1pugXPzePn0BYfRPo-34" value="n4" style="text;html=1;align=center;verticalAlign=middle;resizable=0;points=[];autosize=1;strokeColor=none;fillColor=none;" parent="1" vertex="1">
          <mxGeometry x="40" y="370" width="40" height="30" as="geometry" />
        </mxCell>
        <mxCell id="5NJ1pugXPzePn0BYfRPo-77" value="" style="triangle;whiteSpace=wrap;html=1;" parent="1" vertex="1">
          <mxGeometry x="116.56" y="115" width="30" height="40" as="geometry" />
        </mxCell>
        <mxCell id="5NJ1pugXPzePn0BYfRPo-78" value="" style="ellipse;whiteSpace=wrap;html=1;aspect=fixed;" parent="1" vertex="1">
          <mxGeometry x="146.56" y="130" width="10" height="10" as="geometry" />
        </mxCell>
        <mxCell id="5NJ1pugXPzePn0BYfRPo-79" value="" style="triangle;whiteSpace=wrap;html=1;" parent="1" vertex="1">
          <mxGeometry x="116.56" y="305" width="30" height="40" as="geometry" />
        </mxCell>
        <mxCell id="5NJ1pugXPzePn0BYfRPo-80" value="" style="ellipse;whiteSpace=wrap;html=1;aspect=fixed;" parent="1" vertex="1">
          <mxGeometry x="146.56" y="320" width="10" height="10" as="geometry" />
        </mxCell>
        <mxCell id="knz-vopeXLWIy0nvYE_B-202" style="edgeStyle=orthogonalEdgeStyle;rounded=0;orthogonalLoop=1;jettySize=auto;html=1;exitX=0;exitY=0.25;exitDx=0;exitDy=0;exitPerimeter=0;entryX=0;entryY=0.25;entryDx=0;entryDy=0;entryPerimeter=0;" edge="1" parent="1" target="knz-vopeXLWIy0nvYE_B-19">
          <mxGeometry relative="1" as="geometry">
            <mxPoint x="250" y="130" as="sourcePoint" />
            <Array as="points">
              <mxPoint x="250" y="307" />
            </Array>
          </mxGeometry>
        </mxCell>
        <mxCell id="knz-vopeXLWIy0nvYE_B-203" style="edgeStyle=orthogonalEdgeStyle;rounded=0;orthogonalLoop=1;jettySize=auto;html=1;exitX=0;exitY=0.75;exitDx=0;exitDy=0;exitPerimeter=0;entryX=0;entryY=0.75;entryDx=0;entryDy=0;entryPerimeter=0;" edge="1" parent="1" target="knz-vopeXLWIy0nvYE_B-19">
          <mxGeometry relative="1" as="geometry">
            <mxPoint x="440" y="270" as="sourcePoint" />
            <Array as="points">
              <mxPoint x="440" y="333" />
            </Array>
          </mxGeometry>
        </mxCell>
        <mxCell id="knz-vopeXLWIy0nvYE_B-19" value="" style="shape=or;whiteSpace=wrap;html=1;" vertex="1" parent="1">
          <mxGeometry x="460" y="295" width="50" height="50" as="geometry" />
        </mxCell>
        <mxCell id="knz-vopeXLWIy0nvYE_B-194" style="edgeStyle=orthogonalEdgeStyle;rounded=0;orthogonalLoop=1;jettySize=auto;html=1;exitX=0;exitY=0.75;exitDx=0;exitDy=0;exitPerimeter=0;entryX=0;entryY=0.75;entryDx=0;entryDy=0;entryPerimeter=0;" edge="1" parent="1" target="knz-vopeXLWIy0nvYE_B-21">
          <mxGeometry relative="1" as="geometry">
            <mxPoint x="90" y="390" as="sourcePoint" />
            <Array as="points">
              <mxPoint x="240" y="391" />
              <mxPoint x="240" y="228" />
            </Array>
          </mxGeometry>
        </mxCell>
        <mxCell id="knz-vopeXLWIy0nvYE_B-21" value="" style="shape=or;whiteSpace=wrap;html=1;" vertex="1" parent="1">
          <mxGeometry x="380" y="190" width="50" height="50" as="geometry" />
        </mxCell>
        <mxCell id="knz-vopeXLWIy0nvYE_B-205" style="edgeStyle=orthogonalEdgeStyle;rounded=0;orthogonalLoop=1;jettySize=auto;html=1;entryX=0;entryY=0.75;entryDx=0;entryDy=0;entryPerimeter=0;" edge="1" parent="1" target="knz-vopeXLWIy0nvYE_B-31">
          <mxGeometry relative="1" as="geometry">
            <mxPoint x="240" y="352" as="sourcePoint" />
            <Array as="points">
              <mxPoint x="240" y="353" />
              <mxPoint x="400" y="353" />
              <mxPoint x="400" y="350" />
              <mxPoint x="560" y="350" />
            </Array>
          </mxGeometry>
        </mxCell>
        <mxCell id="knz-vopeXLWIy0nvYE_B-31" value="" style="shape=or;whiteSpace=wrap;html=1;" vertex="1" parent="1">
          <mxGeometry x="570" y="305" width="50" height="50" as="geometry" />
        </mxCell>
        <mxCell id="knz-vopeXLWIy0nvYE_B-34" value="" style="ellipse;whiteSpace=wrap;html=1;aspect=fixed;" vertex="1" parent="1">
          <mxGeometry x="146.56" y="220" width="10" height="10" as="geometry" />
        </mxCell>
        <mxCell id="knz-vopeXLWIy0nvYE_B-35" value="" style="triangle;whiteSpace=wrap;html=1;" vertex="1" parent="1">
          <mxGeometry x="116.56" y="205" width="30" height="40" as="geometry" />
        </mxCell>
        <mxCell id="knz-vopeXLWIy0nvYE_B-157" style="edgeStyle=orthogonalEdgeStyle;rounded=0;orthogonalLoop=1;jettySize=auto;html=1;entryX=0;entryY=0.5;entryDx=0;entryDy=0;" edge="1" parent="1" target="knz-vopeXLWIy0nvYE_B-47">
          <mxGeometry relative="1" as="geometry">
            <mxPoint x="90" y="390" as="sourcePoint" />
            <Array as="points">
              <mxPoint x="90" y="401" />
              <mxPoint x="97" y="401" />
              <mxPoint x="97" y="440" />
            </Array>
          </mxGeometry>
        </mxCell>
        <mxCell id="knz-vopeXLWIy0nvYE_B-47" value="" style="triangle;whiteSpace=wrap;html=1;" vertex="1" parent="1">
          <mxGeometry x="116.56" y="420" width="30" height="40" as="geometry" />
        </mxCell>
        <mxCell id="knz-vopeXLWIy0nvYE_B-48" value="" style="ellipse;whiteSpace=wrap;html=1;aspect=fixed;" vertex="1" parent="1">
          <mxGeometry x="146.56" y="435" width="10" height="10" as="geometry" />
        </mxCell>
        <mxCell id="knz-vopeXLWIy0nvYE_B-49" value="circuit diagram of F" style="text;html=1;align=center;verticalAlign=middle;resizable=0;points=[];autosize=1;strokeColor=none;fillColor=none;" vertex="1" parent="1">
          <mxGeometry x="260" y="10" width="130" height="30" as="geometry" />
        </mxCell>
        <mxCell id="knz-vopeXLWIy0nvYE_B-80" style="edgeStyle=orthogonalEdgeStyle;rounded=0;orthogonalLoop=1;jettySize=auto;html=1;entryX=0;entryY=0.75;entryDx=0;entryDy=0;" edge="1" parent="1" target="5NJ1pugXPzePn0BYfRPo-79">
          <mxGeometry relative="1" as="geometry">
            <mxPoint x="80" y="290" as="sourcePoint" />
            <Array as="points">
              <mxPoint x="80" y="335" />
            </Array>
          </mxGeometry>
        </mxCell>
        <mxCell id="knz-vopeXLWIy0nvYE_B-81" style="edgeStyle=orthogonalEdgeStyle;rounded=0;orthogonalLoop=1;jettySize=auto;html=1;entryX=0;entryY=0.5;entryDx=0;entryDy=0;" edge="1" parent="1" target="5NJ1pugXPzePn0BYfRPo-77">
          <mxGeometry relative="1" as="geometry">
            <mxPoint x="80" y="80" as="sourcePoint" />
            <Array as="points">
              <mxPoint x="70" y="135" />
            </Array>
          </mxGeometry>
        </mxCell>
        <mxCell id="knz-vopeXLWIy0nvYE_B-95" style="edgeStyle=orthogonalEdgeStyle;rounded=0;orthogonalLoop=1;jettySize=auto;html=1;exitX=1.094;exitY=0.497;exitDx=0;exitDy=0;entryX=0;entryY=0.5;entryDx=0;entryDy=0;exitPerimeter=0;" edge="1" parent="1" source="5NJ1pugXPzePn0BYfRPo-32" target="knz-vopeXLWIy0nvYE_B-35">
          <mxGeometry relative="1" as="geometry">
            <Array as="points">
              <mxPoint x="80" y="183" />
              <mxPoint x="80" y="218" />
              <mxPoint x="97" y="218" />
              <mxPoint x="97" y="225" />
            </Array>
          </mxGeometry>
        </mxCell>
        <mxCell id="knz-vopeXLWIy0nvYE_B-128" value="" style="shape=or;whiteSpace=wrap;html=1;" vertex="1" parent="1">
          <mxGeometry x="400" y="380" width="50" height="50" as="geometry" />
        </mxCell>
        <mxCell id="knz-vopeXLWIy0nvYE_B-210" style="edgeStyle=orthogonalEdgeStyle;rounded=0;orthogonalLoop=1;jettySize=auto;html=1;exitX=0;exitY=0.25;exitDx=0;exitDy=0;exitPerimeter=0;entryX=0;entryY=0.25;entryDx=0;entryDy=0;entryPerimeter=0;" edge="1" parent="1" target="knz-vopeXLWIy0nvYE_B-174">
          <mxGeometry relative="1" as="geometry">
            <mxPoint x="80" y="80" as="sourcePoint" />
          </mxGeometry>
        </mxCell>
        <mxCell id="knz-vopeXLWIy0nvYE_B-211" style="edgeStyle=orthogonalEdgeStyle;rounded=0;orthogonalLoop=1;jettySize=auto;html=1;exitX=0;exitY=0.75;exitDx=0;exitDy=0;exitPerimeter=0;entryX=0;entryY=0.75;entryDx=0;entryDy=0;entryPerimeter=0;" edge="1" parent="1" target="knz-vopeXLWIy0nvYE_B-174">
          <mxGeometry relative="1" as="geometry">
            <mxPoint x="80" y="180" as="sourcePoint" />
            <Array as="points">
              <mxPoint x="170" y="181" />
              <mxPoint x="170" y="267" />
            </Array>
          </mxGeometry>
        </mxCell>
        <mxCell id="knz-vopeXLWIy0nvYE_B-174" value="" style="shape=or;whiteSpace=wrap;html=1;" vertex="1" parent="1">
          <mxGeometry x="290" y="230" width="50" height="50" as="geometry" />
        </mxCell>
        <mxCell id="knz-vopeXLWIy0nvYE_B-196" style="edgeStyle=orthogonalEdgeStyle;rounded=0;orthogonalLoop=1;jettySize=auto;html=1;exitX=0;exitY=0.25;exitDx=0;exitDy=0;exitPerimeter=0;entryX=0;entryY=0.25;entryDx=0;entryDy=0;entryPerimeter=0;" edge="1" parent="1" target="knz-vopeXLWIy0nvYE_B-179">
          <mxGeometry relative="1" as="geometry">
            <mxPoint x="190" y="140" as="sourcePoint" />
            <Array as="points">
              <mxPoint x="190" y="72" />
            </Array>
          </mxGeometry>
        </mxCell>
        <mxCell id="knz-vopeXLWIy0nvYE_B-197" style="edgeStyle=orthogonalEdgeStyle;rounded=0;orthogonalLoop=1;jettySize=auto;html=1;exitX=0;exitY=0.75;exitDx=0;exitDy=0;exitPerimeter=0;entryX=0;entryY=0.75;entryDx=0;entryDy=0;entryPerimeter=0;" edge="1" parent="1" target="knz-vopeXLWIy0nvYE_B-179">
          <mxGeometry relative="1" as="geometry">
            <mxPoint x="250" y="160" as="sourcePoint" />
            <Array as="points">
              <mxPoint x="260" y="160" />
              <mxPoint x="260" y="97" />
            </Array>
          </mxGeometry>
        </mxCell>
        <mxCell id="knz-vopeXLWIy0nvYE_B-179" value="" style="shape=or;whiteSpace=wrap;html=1;" vertex="1" parent="1">
          <mxGeometry x="290" y="60" width="50" height="50" as="geometry" />
        </mxCell>
        <mxCell id="knz-vopeXLWIy0nvYE_B-199" style="edgeStyle=orthogonalEdgeStyle;rounded=0;orthogonalLoop=1;jettySize=auto;html=1;exitX=0;exitY=0.75;exitDx=0;exitDy=0;exitPerimeter=0;entryX=0;entryY=0.75;entryDx=0;entryDy=0;entryPerimeter=0;" edge="1" parent="1" target="knz-vopeXLWIy0nvYE_B-180">
          <mxGeometry relative="1" as="geometry">
            <mxPoint x="80" y="290" as="sourcePoint" />
            <Array as="points">
              <mxPoint x="440" y="291" />
              <mxPoint x="440" y="127" />
            </Array>
          </mxGeometry>
        </mxCell>
        <mxCell id="knz-vopeXLWIy0nvYE_B-180" value="" style="shape=or;whiteSpace=wrap;html=1;" vertex="1" parent="1">
          <mxGeometry x="470" y="90" width="50" height="50" as="geometry" />
        </mxCell>
        <mxCell id="knz-vopeXLWIy0nvYE_B-215" style="edgeStyle=orthogonalEdgeStyle;rounded=0;orthogonalLoop=1;jettySize=auto;html=1;exitX=0;exitY=0.75;exitDx=0;exitDy=0;exitPerimeter=0;entryX=0;entryY=0.75;entryDx=0;entryDy=0;entryPerimeter=0;" edge="1" parent="1" target="knz-vopeXLWIy0nvYE_B-181">
          <mxGeometry relative="1" as="geometry">
            <mxPoint x="200" y="390" as="sourcePoint" />
            <Array as="points">
              <mxPoint x="200" y="453" />
            </Array>
          </mxGeometry>
        </mxCell>
        <mxCell id="knz-vopeXLWIy0nvYE_B-181" value="" style="shape=or;whiteSpace=wrap;html=1;" vertex="1" parent="1">
          <mxGeometry x="510" y="415" width="50" height="50" as="geometry" />
        </mxCell>
        <mxCell id="knz-vopeXLWIy0nvYE_B-190" value="" style="shape=xor;whiteSpace=wrap;html=1;" vertex="1" parent="1">
          <mxGeometry x="780" y="320" width="40" height="50" as="geometry" />
        </mxCell>
        <mxCell id="knz-vopeXLWIy0nvYE_B-192" style="edgeStyle=orthogonalEdgeStyle;rounded=0;orthogonalLoop=1;jettySize=auto;html=1;exitX=1;exitY=0;exitDx=0;exitDy=0;" edge="1" parent="1" source="knz-vopeXLWIy0nvYE_B-34" target="5NJ1pugXPzePn0BYfRPo-1">
          <mxGeometry relative="1" as="geometry">
            <Array as="points">
              <mxPoint x="218" y="222" />
              <mxPoint x="218" y="160" />
            </Array>
          </mxGeometry>
        </mxCell>
        <mxCell id="knz-vopeXLWIy0nvYE_B-193" style="edgeStyle=orthogonalEdgeStyle;rounded=0;orthogonalLoop=1;jettySize=auto;html=1;exitX=1;exitY=0.5;exitDx=0;exitDy=0;exitPerimeter=0;entryX=0;entryY=0.25;entryDx=0;entryDy=0;entryPerimeter=0;" edge="1" parent="1" source="5NJ1pugXPzePn0BYfRPo-1" target="knz-vopeXLWIy0nvYE_B-21">
          <mxGeometry relative="1" as="geometry" />
        </mxCell>
        <mxCell id="knz-vopeXLWIy0nvYE_B-198" style="edgeStyle=orthogonalEdgeStyle;rounded=0;orthogonalLoop=1;jettySize=auto;html=1;exitX=1;exitY=0.5;exitDx=0;exitDy=0;exitPerimeter=0;entryX=0;entryY=0.25;entryDx=0;entryDy=0;entryPerimeter=0;" edge="1" parent="1" source="knz-vopeXLWIy0nvYE_B-179" target="knz-vopeXLWIy0nvYE_B-180">
          <mxGeometry relative="1" as="geometry" />
        </mxCell>
        <mxCell id="knz-vopeXLWIy0nvYE_B-200" style="edgeStyle=orthogonalEdgeStyle;rounded=0;orthogonalLoop=1;jettySize=auto;html=1;exitX=1;exitY=0.5;exitDx=0;exitDy=0;exitPerimeter=0;entryX=0.175;entryY=0.25;entryDx=0;entryDy=0;entryPerimeter=0;" edge="1" parent="1" source="knz-vopeXLWIy0nvYE_B-180" target="5NJ1pugXPzePn0BYfRPo-7">
          <mxGeometry relative="1" as="geometry">
            <Array as="points">
              <mxPoint x="560" y="115" />
              <mxPoint x="560" y="193" />
            </Array>
          </mxGeometry>
        </mxCell>
        <mxCell id="knz-vopeXLWIy0nvYE_B-201" style="edgeStyle=orthogonalEdgeStyle;rounded=0;orthogonalLoop=1;jettySize=auto;html=1;exitX=1;exitY=0.5;exitDx=0;exitDy=0;exitPerimeter=0;entryX=0.175;entryY=0.75;entryDx=0;entryDy=0;entryPerimeter=0;" edge="1" parent="1" source="knz-vopeXLWIy0nvYE_B-21" target="5NJ1pugXPzePn0BYfRPo-7">
          <mxGeometry relative="1" as="geometry" />
        </mxCell>
        <mxCell id="knz-vopeXLWIy0nvYE_B-204" style="edgeStyle=orthogonalEdgeStyle;rounded=0;orthogonalLoop=1;jettySize=auto;html=1;exitX=1;exitY=0.5;exitDx=0;exitDy=0;exitPerimeter=0;entryX=0;entryY=0.25;entryDx=0;entryDy=0;entryPerimeter=0;" edge="1" parent="1" source="knz-vopeXLWIy0nvYE_B-19" target="knz-vopeXLWIy0nvYE_B-31">
          <mxGeometry relative="1" as="geometry" />
        </mxCell>
        <mxCell id="knz-vopeXLWIy0nvYE_B-206" style="edgeStyle=orthogonalEdgeStyle;rounded=0;orthogonalLoop=1;jettySize=auto;html=1;exitX=1;exitY=0.5;exitDx=0;exitDy=0;exitPerimeter=0;entryX=0.175;entryY=0.25;entryDx=0;entryDy=0;entryPerimeter=0;" edge="1" parent="1" source="5NJ1pugXPzePn0BYfRPo-7" target="5NJ1pugXPzePn0BYfRPo-8">
          <mxGeometry relative="1" as="geometry" />
        </mxCell>
        <mxCell id="knz-vopeXLWIy0nvYE_B-207" style="edgeStyle=orthogonalEdgeStyle;rounded=0;orthogonalLoop=1;jettySize=auto;html=1;exitX=1;exitY=0.5;exitDx=0;exitDy=0;exitPerimeter=0;entryX=0.175;entryY=0.75;entryDx=0;entryDy=0;entryPerimeter=0;" edge="1" parent="1" source="knz-vopeXLWIy0nvYE_B-31" target="5NJ1pugXPzePn0BYfRPo-8">
          <mxGeometry relative="1" as="geometry">
            <Array as="points">
              <mxPoint x="680" y="330" />
              <mxPoint x="680" y="277" />
            </Array>
          </mxGeometry>
        </mxCell>
        <mxCell id="knz-vopeXLWIy0nvYE_B-209" style="edgeStyle=orthogonalEdgeStyle;rounded=0;orthogonalLoop=1;jettySize=auto;html=1;exitX=1;exitY=0.5;exitDx=0;exitDy=0;exitPerimeter=0;entryX=0.175;entryY=0.25;entryDx=0;entryDy=0;entryPerimeter=0;" edge="1" parent="1">
          <mxGeometry relative="1" as="geometry">
            <mxPoint x="740" y="270" as="sourcePoint" />
            <mxPoint x="787" y="337.5" as="targetPoint" />
            <Array as="points">
              <mxPoint x="760" y="271" />
              <mxPoint x="760" y="337" />
            </Array>
          </mxGeometry>
        </mxCell>
        <mxCell id="knz-vopeXLWIy0nvYE_B-212" style="edgeStyle=orthogonalEdgeStyle;rounded=0;orthogonalLoop=1;jettySize=auto;html=1;exitX=1;exitY=0.5;exitDx=0;exitDy=0;exitPerimeter=0;entryX=0;entryY=0.25;entryDx=0;entryDy=0;entryPerimeter=0;" edge="1" parent="1" source="knz-vopeXLWIy0nvYE_B-174" target="knz-vopeXLWIy0nvYE_B-128">
          <mxGeometry relative="1" as="geometry" />
        </mxCell>
        <mxCell id="knz-vopeXLWIy0nvYE_B-213" style="edgeStyle=orthogonalEdgeStyle;rounded=0;orthogonalLoop=1;jettySize=auto;html=1;exitX=1;exitY=0;exitDx=0;exitDy=0;entryX=0;entryY=0.75;entryDx=0;entryDy=0;entryPerimeter=0;" edge="1" parent="1" source="5NJ1pugXPzePn0BYfRPo-80" target="knz-vopeXLWIy0nvYE_B-128">
          <mxGeometry relative="1" as="geometry" />
        </mxCell>
        <mxCell id="knz-vopeXLWIy0nvYE_B-214" style="edgeStyle=orthogonalEdgeStyle;rounded=0;orthogonalLoop=1;jettySize=auto;html=1;exitX=1;exitY=0.5;exitDx=0;exitDy=0;exitPerimeter=0;entryX=0;entryY=0.25;entryDx=0;entryDy=0;entryPerimeter=0;" edge="1" parent="1" source="knz-vopeXLWIy0nvYE_B-128" target="knz-vopeXLWIy0nvYE_B-181">
          <mxGeometry relative="1" as="geometry" />
        </mxCell>
        <mxCell id="knz-vopeXLWIy0nvYE_B-216" style="edgeStyle=orthogonalEdgeStyle;rounded=0;orthogonalLoop=1;jettySize=auto;html=1;exitX=1;exitY=0.5;exitDx=0;exitDy=0;exitPerimeter=0;entryX=0.175;entryY=0.75;entryDx=0;entryDy=0;entryPerimeter=0;" edge="1" parent="1" source="knz-vopeXLWIy0nvYE_B-181" target="knz-vopeXLWIy0nvYE_B-190">
          <mxGeometry relative="1" as="geometry">
            <Array as="points">
              <mxPoint x="730" y="440" />
              <mxPoint x="730" y="357" />
            </Array>
          </mxGeometry>
        </mxCell>
      </root>
    </mxGraphModel>
  </diagram>
</mxfile>
